<?xml version="1.0" standalone="no"?>
<!DOCTYPE svg PUBLIC "-//W3C//DTD SVG 20010904//EN"
 "http://www.w3.org/TR/2001/REC-SVG-20010904/DTD/svg10.dtd">
<svg version="1.0" xmlns="http://www.w3.org/2000/svg"
 width="1816.000000pt" height="1740.000000pt" viewBox="0 0 1816.000000 1740.000000"
 preserveAspectRatio="xMidYMid meet">
<metadata>
Created by potrace 1.16, written by Peter Selinger 2001-2019
</metadata>
<g transform="translate(0.000000,1740.000000) scale(0.100000,-0.100000)"
fill="#000000" stroke="none">
<path d="M7700 16869 c-264 -148 -393 -219 -398 -219 -18 0 -522 -287 -522
-298 0 -25 90 -101 146 -121 122 -46 250 -18 346 76 l46 45 131 -72 c72 -40
131 -75 131 -78 0 -19 -92 -121 -143 -159 -83 -61 -144 -91 -235 -114 -213
-54 -451 9 -602 161 -36 36 -74 77 -85 93 l-20 27 -137 -76 c-76 -41 -138 -79
-138 -84 0 -22 65 -61 404 -248 346 -189 363 -197 416 -197 53 0 70 8 400 189
190 104 360 200 378 213 63 47 62 41 62 490 0 224 -3 418 -6 431 -4 12 -11 22
-18 22 -6 0 -76 -37 -156 -81z m-170 -239 l0 -40 40 0 40 0 0 40 c0 36 3 40
25 40 23 0 25 -4 25 -40 l0 -40 45 0 c38 0 45 -3 45 -20 0 -17 -7 -20 -45 -20
l-45 0 0 -45 0 -45 45 0 c38 0 45 -3 45 -20 0 -17 -7 -20 -45 -20 l-45 0 0
-40 c0 -36 -2 -40 -25 -40 -22 0 -25 4 -25 40 l0 40 -40 0 -40 0 0 -40 c0 -36
-2 -40 -25 -40 -22 0 -25 4 -25 40 l0 40 -45 0 c-38 0 -45 3 -45 20 0 17 7 20
45 20 l45 0 0 45 0 45 -45 0 c-38 0 -45 3 -45 20 0 17 7 20 45 20 l45 0 0 40
c0 36 3 40 25 40 23 0 25 -4 25 -40z"/>
<path d="M2000 16545 l0 -135 50 0 50 0 0 45 c0 45 0 45 35 45 35 0 35 0 35
-45 l0 -45 45 0 45 0 0 135 0 135 -45 0 -45 0 0 -40 c0 -39 -1 -40 -35 -40
-34 0 -35 1 -35 40 l0 40 -50 0 -50 0 0 -135z"/>
<path d="M2290 16635 l0 -45 40 0 40 0 0 -90 0 -90 45 0 45 0 0 90 0 90 40 0
40 0 0 45 0 45 -125 0 -125 0 0 -45z"/>
<path d="M2570 16545 l0 -135 45 0 45 0 0 63 0 62 26 -42 c14 -24 28 -43 32
-43 4 0 17 17 29 38 l22 37 1 -57 0 -58 50 0 50 0 0 135 0 135 -55 0 c-30 0
-55 -3 -55 -7 0 -5 -9 -23 -21 -42 l-21 -34 -24 41 c-24 40 -27 42 -75 42
l-49 0 0 -135z"/>
<path d="M2900 16545 l0 -135 110 0 110 0 0 50 0 50 -60 0 -60 0 0 85 0 85
-50 0 -50 0 0 -135z"/>
<path d="M1880 16283 c0 -35 120 -1388 124 -1399 2 -6 30 -16 62 -23 33 -7
157 -40 276 -72 l218 -60 272 77 c150 42 274 77 276 79 1 1 21 195 42 431 22
236 51 542 65 679 13 138 24 262 25 278 l0 27 -680 0 c-641 0 -680 -1 -680
-17z m1105 -340 c-4 -38 -8 -78 -11 -90 l-4 -23 -324 0 -324 0 4 -42 c3 -24 7
-62 10 -85 l5 -43 310 0 309 0 -5 -52 c-3 -29 -14 -149 -25 -267 -10 -117 -22
-216 -27 -220 -4 -4 -83 -29 -174 -54 l-166 -46 -172 48 c-94 27 -174 51 -177
54 -6 6 -23 174 -24 235 l0 42 84 0 83 0 7 -37 c3 -21 6 -52 6 -70 0 -30 3
-33 53 -47 138 -39 130 -38 224 -11 48 14 90 28 94 32 4 5 10 54 14 111 l7
102 -290 0 -291 0 -5 33 c-3 17 -12 118 -21 222 -8 105 -18 209 -21 233 l-5
42 431 0 431 0 -6 -67z"/>
<path d="M8545 14433 c-70 -4 -203 -21 -315 -39 -327 -53 -727 -216 -1024
-416 -158 -107 -374 -305 -488 -448 -272 -339 -434 -738 -494 -1210 -20 -165
-15 -511 10 -658 62 -357 167 -605 320 -757 96 -95 228 -136 321 -100 115 43
241 233 350 524 49 130 146 475 172 611 l17 89 50 5 c28 3 180 14 338 26 1102
80 1965 243 2358 446 46 24 85 42 86 41 0 -1 24 -36 51 -77 115 -171 276 -339
393 -411 l46 -28 32 -161 c120 -595 314 -974 542 -1061 158 -60 297 21 381
222 38 92 83 277 104 429 22 157 31 619 16 825 -36 489 -132 903 -261 1129
-84 148 -206 278 -309 331 -92 47 -143 58 -267 59 -120 1 -121 1 -180 37 -162
99 -437 236 -621 310 -133 53 -427 147 -569 184 -327 82 -729 119 -1059 98z"/>
<path d="M14675 14370 l-219 -18 -28 -31 c-32 -35 -34 -52 -14 -107 31 -87
430 -901 454 -927 51 -54 80 -54 308 2 113 28 209 51 213 51 4 0 27 -37 50
-82 74 -143 151 -266 187 -298 57 -49 88 -44 419 69 478 163 475 162 475 230
0 30 -16 57 -100 165 -55 71 -98 131 -96 133 2 2 46 15 97 29 109 29 139 51
139 103 -1 31 -18 57 -135 196 -78 93 -148 167 -167 176 -31 16 -42 15 -220
-15 -189 -32 -219 -43 -233 -86 -9 -28 9 -62 84 -164 39 -52 71 -98 71 -103 0
-12 -462 -115 -469 -105 -3 6 -112 180 -241 387 -129 208 -245 384 -257 392
-34 22 -79 23 -318 3z m399 -499 c109 -181 197 -333 196 -338 -2 -6 -213 -61
-242 -63 -6 0 -354 682 -361 707 -2 8 74 19 158 21 l50 2 199 -329z m1089
-448 l66 -88 -241 -80 c-170 -56 -243 -76 -245 -68 -3 7 -33 56 -69 109 -35
53 -64 97 -64 99 0 2 35 11 78 20 42 9 147 34 232 55 85 21 160 39 166 39 7 1
41 -38 77 -86z"/>
<path d="M430 12780 l0 -140 115 0 115 0 0 50 0 50 -65 0 -65 0 0 40 0 40 65
0 65 0 0 50 0 50 -115 0 -115 0 0 -140z"/>
<path d="M690 12830 l0 -89 68 -4 67 -3 -67 -2 -68 -2 0 -45 0 -45 120 0 120
0 0 95 0 94 -67 4 -68 3 68 2 67 2 0 40 0 40 -120 0 -120 0 0 -90z"/>
<path d="M960 12830 l0 -89 73 -4 72 -3 -72 -2 -73 -2 0 -45 0 -45 115 0 115
0 0 95 0 94 -67 4 -68 3 68 2 67 2 0 40 0 40 -115 0 -115 0 0 -90z"/>
<path d="M14720 12330 l0 -210 30 0 30 0 0 210 0 210 -30 0 -30 0 0 -210z"/>
<path d="M16200 12330 l0 -210 30 0 30 0 0 210 0 210 -30 0 -30 0 0 -210z"/>
<path d="M80 12505 c0 -8 29 -332 65 -720 36 -388 65 -714 65 -723 0 -14 57
-32 308 -99 l307 -83 87 24 c48 13 92 27 98 31 6 4 99 31 206 60 108 29 198
56 201 59 3 2 35 333 72 735 l66 731 -737 0 c-647 0 -738 -2 -738 -15z m1200
-317 c-1 -76 -79 -881 -87 -888 -10 -9 -344 -100 -369 -100 -24 -1 -366 91
-377 101 -9 7 -37 269 -30 282 2 4 44 7 92 7 100 0 101 0 101 -92 0 -56 1 -56
121 -88 l87 -22 97 25 c54 14 100 28 102 31 6 6 22 142 22 194 l1 32 -314 0
c-173 0 -317 3 -319 8 -3 4 -8 46 -12 95 l-7 87 336 0 c313 0 336 1 337 18 0
9 4 50 8 90 l7 72 -352 0 -351 0 -7 53 c-3 28 -6 69 -6 90 l0 37 460 0 460 0
0 -32z"/>
<path d="M14926 12420 c-37 -11 -76 -48 -76 -72 0 -27 44 -23 75 8 20 20 32
24 53 19 31 -8 42 -21 42 -52 0 -21 -5 -23 -50 -23 -61 0 -97 -16 -116 -51
-20 -40 -17 -74 9 -104 28 -34 92 -44 136 -22 17 9 31 11 31 6 0 -5 13 -9 29
-9 l28 0 -4 123 c-6 139 -14 161 -70 176 -43 12 -48 12 -87 1z"/>
<path d="M15238 12416 c-16 -8 -28 -11 -28 -5 0 5 -13 9 -30 9 l-30 0 0 -150
0 -150 30 0 30 0 0 101 c0 55 5 109 10 120 7 11 26 21 50 25 33 5 40 11 40 29
0 20 -17 35 -38 35 -4 0 -19 -7 -34 -14z"/>
<path d="M15403 12419 c-33 -10 -73 -51 -73 -75 0 -22 50 -16 69 8 35 42 111
20 111 -33 0 -13 -12 -17 -65 -21 -81 -5 -115 -31 -115 -89 0 -51 8 -67 41
-84 37 -19 89 -19 117 1 12 8 22 10 22 5 0 -6 15 -11 33 -11 l32 0 -3 112 c-2
61 -8 122 -12 134 -18 46 -95 72 -157 53z"/>
<path d="M15986 12420 c-61 -19 -96 -76 -96 -157 0 -99 60 -158 153 -150 36 3
56 11 75 31 24 24 25 27 10 42 -15 16 -18 15 -44 -5 -27 -21 -58 -26 -89 -15
-16 6 -45 54 -45 74 0 6 37 10 100 10 l100 0 0 33 c0 41 -33 112 -57 125 -30
16 -76 21 -107 12z"/>
<path d="M15610 12409 c0 -9 67 -199 95 -272 5 -12 16 -17 33 -15 22 3 29 17
73 141 27 77 49 143 49 148 0 5 -13 9 -28 9 -28 0 -30 -4 -62 -107 l-33 -108
-36 108 c-34 102 -37 107 -63 107 -15 0 -28 -5 -28 -11z"/>
<path d="M8230 11074 c-85 -19 -213 -83 -275 -138 -43 -38 -48 -47 -39 -63 17
-28 80 -27 200 1 152 37 214 35 359 -14 179 -60 245 -50 245 35 0 68 -112 157
-231 184 -61 14 -181 12 -259 -5z"/>
<path d="M9805 11076 c-119 -29 -225 -116 -225 -184 0 -11 9 -31 21 -46 30
-39 89 -35 230 14 139 49 196 51 357 14 194 -43 250 -21 158 64 -127 117 -372
180 -541 138z"/>
<path d="M8220 10673 c-71 -27 -109 -95 -110 -195 0 -86 19 -215 37 -250 30
-60 159 -91 228 -55 63 32 74 55 91 183 22 179 3 259 -76 303 -37 21 -131 28
-170 14z m75 -78 c35 -34 34 -86 -1 -114 -35 -28 -69 -26 -99 4 -38 37 -30 96
16 121 35 20 57 17 84 -11z"/>
<path d="M9925 10666 c-89 -39 -115 -154 -80 -356 13 -74 19 -88 46 -112 76
-64 214 -52 263 25 21 32 39 172 35 271 -4 93 -18 122 -79 164 -38 26 -135 30
-185 8z m88 -77 c37 -46 2 -129 -55 -129 -31 0 -67 26 -79 57 -10 28 9 75 38
93 25 15 75 4 96 -21z"/>
<path d="M6985 9859 c-16 -6 -69 -11 -117 -11 -49 -1 -88 -3 -88 -6 0 -10 67
-123 124 -207 68 -101 234 -272 341 -352 38 -29 71 -50 73 -49 2 2 -20 45 -48
95 -65 113 -190 384 -219 474 -13 37 -26 67 -29 66 -4 0 -20 -5 -37 -10z"/>
<path d="M11171 9748 c-53 -139 -141 -323 -210 -442 -28 -49 -50 -91 -48 -93
8 -7 138 100 224 184 100 97 234 272 288 374 19 37 35 70 35 73 0 3 -30 5 -67
4 -38 -2 -93 1 -123 5 l-56 8 -43 -113z"/>
<path d="M4095 9790 c-3 -6 -3 -20 0 -31 7 -21 5 -22 -81 -17 -289 16 -647
-40 -899 -141 -143 -57 -307 -166 -374 -249 -29 -36 -30 -36 -44 -18 -14 19
-16 17 -45 -34 -134 -234 14 -501 369 -669 265 -126 532 -179 919 -183 240 -2
370 12 568 63 337 86 589 244 688 431 34 66 38 82 42 163 3 75 0 100 -18 148
-77 204 -338 382 -699 476 -166 44 -415 79 -426 61z m-158 -176 c3 -8 -1 -48
-9 -88 l-15 -73 105 -7 c123 -7 182 -29 212 -78 27 -45 26 -75 -16 -285 l-37
-183 -98 0 c-90 0 -99 2 -99 18 0 11 14 86 30 167 43 210 46 195 -50 195 -44
0 -80 -1 -80 -2 -1 -2 -18 -86 -38 -188 l-38 -185 -97 -3 -97 -3 0 28 c0 15 4
45 9 66 l9 37 -55 -50 c-69 -63 -123 -80 -259 -80 l-103 0 -11 -57 c-6 -32
-15 -71 -19 -88 l-7 -30 -97 -3 c-95 -3 -97 -2 -97 20 0 41 132 683 143 697
18 21 378 11 432 -13 46 -20 80 -49 106 -90 22 -36 21 -37 49 109 12 61 26
127 31 148 l10 37 90 0 c72 0 91 -3 96 -16z m768 -179 c120 -32 171 -104 163
-229 -6 -87 -36 -155 -96 -214 -68 -68 -116 -85 -258 -90 l-122 -4 -6 -39 c-3
-22 -11 -62 -17 -89 l-11 -50 -93 0 c-52 0 -97 4 -100 10 -7 11 119 659 135
698 9 22 13 22 178 22 119 0 185 -4 227 -15z"/>
<path d="M3765 9578 c-17 -70 -125 -625 -125 -640 0 -17 8 -19 72 -16 l72 3
28 140 c15 77 33 164 39 193 l10 52 88 0 c75 0 91 -3 106 -20 17 -19 17 -25
-14 -184 -17 -90 -31 -169 -31 -175 0 -7 27 -11 74 -11 l73 0 32 158 c39 197
40 250 5 291 -33 40 -77 51 -205 51 l-107 0 14 68 c8 37 16 77 19 90 5 21 3
22 -70 22 -69 0 -75 -2 -80 -22z"/>
<path d="M3135 9408 c-2 -7 -31 -152 -65 -323 -34 -170 -64 -318 -66 -328 -5
-16 1 -18 72 -15 l78 3 13 65 c7 36 15 74 18 86 4 19 13 21 122 27 68 3 137
12 162 21 108 39 181 140 189 260 7 111 -31 173 -127 205 -49 16 -390 15 -396
-1z m333 -114 c31 -20 44 -58 36 -103 -23 -122 -77 -161 -222 -161 -65 0 -73
2 -68 18 2 9 14 67 26 127 32 165 18 149 118 141 50 -4 96 -13 110 -22z"/>
<path d="M3287 9274 c-3 -11 -13 -57 -22 -104 -9 -47 -19 -94 -22 -104 -5 -18
-1 -18 58 -12 94 10 125 23 149 61 28 45 37 123 17 150 -13 16 -30 20 -95 23
-71 4 -81 2 -85 -14z"/>
<path d="M4315 9398 c-18 -88 -125 -635 -125 -645 0 -9 21 -13 74 -13 l73 0 7
40 c3 22 11 62 17 89 l10 48 117 6 c138 7 177 17 234 60 92 70 144 200 118
298 -15 55 -72 113 -125 128 -22 6 -119 11 -217 11 -176 0 -178 0 -183 -22z
m336 -103 c33 -18 44 -50 35 -106 -10 -60 -40 -111 -78 -134 -42 -25 -208 -36
-208 -14 0 8 11 72 25 144 14 71 25 131 25 134 0 10 174 -11 201 -24z"/>
<path d="M4460 9233 c-7 -32 -18 -87 -25 -121 l-13 -64 72 7 c39 4 84 14 99
22 38 19 69 90 65 145 -4 54 -28 68 -120 68 l-67 0 -11 -57z"/>
<path d="M15530 9557 c0 -223 -5 -240 -68 -235 -31 2 -40 9 -52 35 -14 31 -18
33 -68 33 l-54 0 7 -32 c10 -48 35 -80 86 -106 35 -19 54 -22 97 -18 71 6 112
32 140 86 21 41 22 57 22 237 l0 193 -55 0 -55 0 0 -193z"/>
<path d="M15805 9619 c-60 -17 -102 -78 -90 -129 11 -43 46 -70 120 -92 78
-23 100 -41 84 -69 -19 -36 -119 -17 -119 22 0 5 -22 9 -50 9 -56 0 -60 -8
-30 -57 66 -109 283 -86 305 32 11 61 -34 105 -134 133 -35 9 -69 24 -74 34
-29 46 69 69 99 23 13 -20 24 -25 60 -25 23 0 45 4 48 8 3 5 -3 24 -12 43 -31
62 -124 93 -207 68z"/>
<path d="M14590 7953 c-74 -14 -221 -101 -317 -188 l-53 -47 -57 52 c-75 67
-184 135 -258 160 -68 24 -164 26 -204 6 -46 -24 -89 -82 -107 -144 -22 -75
-22 -260 0 -361 9 -41 15 -75 14 -76 -2 0 -29 -9 -61 -19 -184 -56 -342 -175
-372 -281 -15 -51 -15 -59 0 -111 32 -111 191 -236 370 -290 33 -10 61 -19 62
-19 2 -1 -5 -35 -14 -76 -9 -44 -16 -122 -16 -194 0 -101 3 -129 22 -178 44
-112 109 -154 221 -144 99 9 279 106 364 196 17 17 33 31 38 31 4 0 32 -22 61
-48 123 -112 243 -173 351 -179 65 -4 75 -2 116 24 113 73 146 260 94 539 -6
30 -5 31 68 58 155 56 284 146 335 233 56 95 22 214 -85 299 -65 51 -214 127
-284 145 -27 6 -48 14 -48 18 0 3 5 22 10 41 19 69 29 220 20 301 -16 139 -65
218 -154 244 -50 15 -69 16 -116 8z m-674 -122 c68 -32 181 -110 221 -153 l22
-24 -69 -83 c-38 -47 -80 -99 -92 -118 -18 -26 -30 -33 -55 -33 -18 0 -80 -9
-139 -21 -58 -11 -108 -18 -110 -16 -14 13 -34 156 -34 237 0 104 12 160 42
203 40 56 105 59 214 8z m811 5 c34 -40 53 -118 53 -220 -1 -83 -19 -219 -32
-231 -3 -3 -56 3 -118 15 -63 11 -125 20 -139 20 -18 0 -33 10 -48 33 -12 17
-54 70 -93 117 l-70 85 48 44 c59 54 171 129 231 153 65 26 137 19 168 -16z
m-439 -324 c29 -35 52 -66 52 -70 0 -4 -54 -7 -120 -7 -66 0 -120 2 -120 4 0
19 122 154 130 144 4 -4 30 -36 58 -71z m111 -171 c25 -7 93 -112 173 -267
l42 -81 -64 -114 c-34 -63 -78 -139 -97 -170 l-34 -56 -132 -5 c-73 -2 -162
-2 -198 0 l-67 4 -60 102 c-33 55 -77 133 -98 172 l-38 70 47 87 c94 173 148
256 170 260 36 7 330 6 356 -2z m-491 -19 c-22 -50 -123 -211 -128 -205 -9 9
-60 156 -60 171 0 5 37 16 83 24 100 19 110 20 105 10z m725 -9 c55 -10 87
-21 87 -29 0 -17 -50 -157 -60 -167 -5 -6 -106 154 -128 205 -5 11 1 10 101
-9z m-971 -120 c14 -43 36 -105 49 -138 l22 -60 -42 -107 c-23 -59 -44 -122
-48 -139 -5 -28 -9 -30 -36 -25 -16 3 -71 26 -121 50 -289 138 -311 274 -68
412 57 33 182 83 207 84 6 0 23 -35 37 -77z m1238 47 c165 -60 290 -167 290
-247 0 -81 -177 -216 -342 -261 -37 -10 -37 -10 -49 26 -6 21 -29 83 -51 138
l-40 102 46 121 c25 66 46 127 46 136 0 20 7 19 100 -15z m-1049 -465 c33 -59
58 -109 56 -111 -2 -2 -41 3 -88 11 -46 8 -87 15 -91 15 -5 0 -8 7 -8 14 0 21
61 188 67 182 2 -2 31 -52 64 -111z m848 13 l30 -88 -23 -6 c-33 -8 -171 -31
-174 -29 -1 1 26 52 60 113 35 61 66 108 70 104 3 -4 20 -46 37 -94z m71 -245
c6 -38 12 -113 11 -168 0 -193 -57 -272 -179 -244 -79 17 -209 97 -281 172
l-34 36 60 73 c32 41 72 92 88 115 29 40 31 41 115 52 47 7 110 18 140 25 30
7 58 11 61 9 4 -1 12 -33 19 -70z m-906 40 c111 -17 119 -19 139 -48 11 -16
52 -67 90 -113 l69 -84 -28 -30 c-44 -45 -143 -114 -216 -148 -70 -33 -148
-41 -187 -20 -58 31 -87 205 -61 368 16 102 18 105 49 98 14 -3 79 -13 145
-23z m474 -41 c-39 -55 -113 -140 -119 -137 -11 7 -119 142 -119 149 0 3 57 6
126 6 119 0 125 -1 112 -18z"/>
<path d="M14150 7174 c-101 -44 -145 -166 -95 -264 81 -158 315 -119 349 59
26 139 -125 261 -254 205z"/>
<path d="M8259 7651 c-57 -38 -121 -85 -143 -103 l-38 -34 52 -104 c137 -273
297 -527 402 -637 69 -74 112 -61 310 94 59 46 113 89 120 96 7 7 48 43 91 80
74 66 90 87 66 87 -44 0 -414 292 -676 533 -34 31 -66 57 -71 57 -5 0 -56 -31
-113 -69z"/>
<path d="M9878 7708 c-219 -206 -609 -521 -698 -564 -22 -10 -40 -22 -40 -25
0 -11 204 -188 304 -264 210 -160 237 -162 343 -30 93 116 281 426 365 601
l41 85 -24 25 c-25 27 -255 184 -269 184 -5 0 -15 -6 -22 -12z"/>
<path d="M3040 6707 c0 -162 -3 -297 -7 -300 -3 -4 -30 7 -58 23 -29 17 -60
30 -68 30 -25 0 -385 -218 -397 -239 -15 -30 -13 -453 3 -473 15 -21 377 -238
395 -238 7 0 39 17 70 38 31 21 109 69 172 107 63 37 125 77 138 88 l22 20 0
547 c0 509 -1 548 -17 562 -35 29 -215 128 -234 128 -18 0 -19 -10 -19 -293z
m-65 -606 l60 -38 3 -75 3 -75 -68 -40 -67 -40 -60 37 -61 37 -3 79 -2 79 62
37 c35 20 65 37 68 37 3 0 32 -17 65 -38z"/>
<path d="M5730 6618 c-30 -5 -63 -16 -75 -26 -11 -9 -38 -26 -59 -37 -72 -36
-143 -111 -183 -193 l-38 -76 -8 -1930 -8 -1931 -92 -140 c-136 -209 -338
-548 -329 -556 4 -4 25 -12 47 -19 83 -26 176 -83 226 -139 l51 -56 16 24 c10
13 35 57 58 97 22 41 58 95 80 121 85 101 83 99 94 83 5 -8 10 -11 10 -6 0 6
12 -2 28 -16 33 -30 82 -53 142 -67 27 -6 199 -11 418 -11 l373 0 -6 -32 c-5
-33 -95 -1015 -95 -1043 0 -16 -938 -20 -4320 -20 l-1165 0 -67 -29 c-81 -35
-105 -60 -144 -146 -24 -56 -28 -77 -28 -150 0 -74 5 -94 31 -150 35 -73 67
-107 133 -141 l45 -24 8220 0 c8007 0 8221 0 8255 19 70 37 100 67 132 134 31
62 33 74 33 167 0 93 -3 104 -32 160 -40 76 -73 106 -148 136 l-60 23 -1420 1
c-1238 1 -1424 -1 -1455 -14 -45 -19 -399 -29 -410 -12 -5 9 -66 9 -236 0
-323 -16 -1194 -6 -1373 15 -478 56 -778 126 -1116 260 l-130 51 530 5 530 5
-2 65 c-3 71 -33 352 -62 575 -10 77 -18 141 -17 142 1 1 99 3 219 5 l217 3 9
-27 c6 -16 14 -28 18 -28 4 0 40 16 78 35 39 20 113 46 165 59 52 13 96 29 98
35 2 6 -4 61 -13 123 -14 96 -16 206 -15 745 0 348 -1 633 -3 633 -2 0 -55
-30 -118 -66 -144 -83 -496 -256 -658 -324 -790 -329 -1589 -502 -2424 -527
l-218 -6 6 -136 c4 -75 11 -203 15 -286 5 -82 16 -289 25 -460 8 -170 18 -343
21 -382 l6 -73 289 0 c239 0 296 -3 327 -16 47 -19 90 -60 108 -103 18 -43 18
-152 0 -194 -19 -45 -74 -93 -121 -106 -27 -7 -282 -11 -790 -11 l-750 0 -79
45 c-148 84 -250 174 -336 297 -28 39 -50 75 -50 80 0 4 131 8 290 8 225 0
290 3 290 13 0 6 16 305 35 662 19 358 35 661 35 676 0 24 -3 25 -102 38 -802
98 -1500 329 -1953 646 -399 279 -635 608 -793 1105 -86 271 -146 652 -158
1015 -18 504 82 985 277 1341 16 29 29 57 29 63 0 14 -262 13 -350 -1z"/>
<path d="M750 6356 l-185 -111 -3 -310 c-1 -190 1 -312 7 -318 10 -10 116 46
216 112 l40 27 3 157 3 158 54 34 c30 19 63 35 75 35 12 0 45 -16 75 -35 l55
-35 0 -153 c0 -134 2 -156 18 -169 41 -37 234 -140 243 -131 6 6 8 131 7 318
l-3 310 -190 112 c-104 62 -198 113 -210 112 -11 0 -103 -51 -205 -113z"/>
<path d="M1950 6454 c0 -3 17 -36 39 -72 21 -37 55 -98 76 -135 l37 -68 0
-280 c1 -153 3 -279 6 -279 13 0 214 124 218 134 2 6 3 119 2 251 l-3 240 -59
-108 c-54 -98 -60 -106 -72 -88 -11 16 -79 144 -162 306 -8 17 -22 38 -30 48
-10 12 -11 17 -3 17 7 0 9 5 6 10 -4 6 -11 8 -16 5 -5 -4 -9 -2 -9 3 0 6 -7
12 -15 16 -8 3 -15 3 -15 0z"/>
<path d="M3690 6354 c-96 -58 -183 -114 -192 -125 -16 -19 -18 -46 -18 -238 0
-158 3 -222 13 -233 17 -24 366 -228 388 -228 18 0 198 100 232 129 24 20 22
22 -185 146 l-178 106 0 82 0 83 65 38 65 38 65 -38 65 -38 0 -62 c0 -95 7
-95 146 -11 l119 72 3 60 c2 32 1 69 -2 81 -4 14 -62 55 -192 133 -102 61
-193 111 -202 110 -9 0 -96 -48 -192 -105z"/>
<path d="M1535 6221 c-3 -11 -5 -63 -3 -118 1 -54 4 -90 6 -80 2 9 8 15 13 11
5 -3 6 -11 2 -17 -4 -7 2 -5 12 3 10 8 16 10 13 5 -4 -6 2 -17 14 -24 16 -10
19 -10 12 1 -4 7 2 4 14 -6 24 -21 29 -31 10 -20 -10 5 -10 3 0 -7 11 -12 14
-12 22 1 5 8 10 12 10 7 0 -10 -67 -143 -96 -188 l-24 -38 28 -19 c68 -47 353
-213 361 -210 5 2 -51 116 -125 253 -74 138 -159 298 -190 358 -31 59 -60 107
-64 107 -5 0 -11 -9 -15 -19z"/>
<path d="M13650 5465 l0 -195 25 0 c25 0 25 1 25 80 l0 80 48 0 47 0 41 -78
c34 -64 46 -78 68 -80 l27 -3 -45 82 -44 82 34 32 c28 27 34 40 34 73 0 93
-41 122 -174 122 l-86 0 0 -195z m195 130 c14 -13 25 -36 25 -50 0 -14 -11
-37 -25 -50 -20 -21 -34 -25 -85 -25 l-60 0 0 75 0 75 60 0 c51 0 65 -4 85
-25z"/>
<path d="M14900 5595 c0 -31 -3 -35 -25 -35 -16 0 -25 -6 -25 -15 0 -9 9 -15
25 -15 l25 0 0 -113 c0 -129 8 -148 60 -150 25 -2 35 3 38 16 2 11 -3 17 -16
17 -36 0 -43 23 -40 126 l3 99 28 3 c38 5 36 32 -3 32 -28 0 -30 3 -30 35 0
28 -4 35 -20 35 -16 0 -20 -7 -20 -35z"/>
<path d="M14038 5544 c-76 -40 -87 -190 -19 -247 43 -36 92 -42 146 -18 47 21
53 29 34 48 -9 9 -17 6 -32 -8 -34 -31 -90 -25 -121 12 -14 17 -26 39 -26 50
0 17 8 19 100 19 97 0 100 1 100 23 0 44 -21 96 -47 117 -31 24 -95 26 -135 4z"/>
<path d="M14334 5550 c-21 -8 -54 -46 -54 -62 0 -18 44 -6 62 17 37 47 118 20
118 -40 0 -23 -3 -25 -49 -25 -88 0 -131 -29 -131 -86 0 -50 15 -72 59 -85 34
-10 45 -9 80 8 32 16 41 17 41 7 0 -8 11 -14 26 -14 22 0 25 3 20 23 -3 12 -6
66 -6 120 0 91 -2 100 -25 122 -19 20 -34 25 -72 24 -26 0 -58 -4 -69 -9z"/>
<path d="M14632 5544 c-50 -35 -72 -146 -41 -209 42 -86 173 -94 215 -13 18
35 18 38 -4 38 -10 0 -28 -13 -40 -30 -23 -30 -58 -39 -97 -24 -26 10 -45 59
-45 114 0 44 5 56 29 81 44 43 102 35 121 -17 13 -33 54 -35 45 -1 -4 12 -20
34 -36 50 -23 22 -39 27 -77 27 -27 0 -57 -7 -70 -16z"/>
</g>
</svg>
